<svg width="10" height="16" viewBox="0 0 10 16" fill="none" xmlns="http://www.w3.org/2000/svg">
<path d="M9.06971 0.128277L7.02729 0.125C4.7327 0.125 3.24984 1.64637 3.24984 4.0011V5.78824H1.19627C1.01882 5.78824 0.875122 5.9321 0.875122 6.10955V8.69891C0.875122 8.87637 1.01898 9.02006 1.19627 9.02006H3.24984V15.5538C3.24984 15.7313 3.39353 15.875 3.57099 15.875H6.2503C6.42776 15.875 6.57145 15.7311 6.57145 15.5538V9.02006H8.97255C9.15 9.02006 9.2937 8.87637 9.2937 8.69891L9.29468 6.10955C9.29468 6.02435 9.26077 5.94275 9.20063 5.88245C9.1405 5.82215 9.05857 5.78824 8.97337 5.78824H6.57145V4.27326C6.57145 3.54509 6.74497 3.17544 7.69352 3.17544L9.06939 3.17495C9.24667 3.17495 9.39037 3.03109 9.39037 2.8538V0.449428C9.39037 0.272303 9.24684 0.128605 9.06971 0.128277Z" fill="#B6BBC6"/>
</svg>
