<svg width="23" height="23" viewBox="0 0 23 23" fill="none" xmlns="http://www.w3.org/2000/svg">
<mask id="mask0_110_87" style="mask-type:alpha" maskUnits="userSpaceOnUse" x="11" y="12" width="12" height="11">
<path fill-rule="evenodd" clip-rule="evenodd" d="M13.9384 13.7653L11.2999 16.371L16.2345 21.2443C17.6857 22.6776 20.0602 22.6775 21.5113 21.2444C22.9624 19.8112 22.9625 17.4661 21.5112 16.033L19.2152 13.7654C18.4896 13.0488 17.5331 12.6904 16.5767 12.6904C15.6203 12.6904 14.6639 13.0488 13.9384 13.7653Z" fill="white"/>
</mask>
<g mask="url(#mask0_110_87)">
<path fill-rule="evenodd" clip-rule="evenodd" d="M13.9384 13.7653L11.2999 16.371L16.2345 21.2443C17.6857 22.6776 20.0602 22.6775 21.5113 21.2444C22.9624 19.8112 22.9625 17.4661 21.5112 16.033L19.2152 13.7654C18.4896 13.0488 17.5331 12.6904 16.5767 12.6904C15.6203 12.6904 14.6639 13.0488 13.9384 13.7653Z" fill="#0565B3"/>
</g>
<mask id="mask1_110_87" style="mask-type:alpha" maskUnits="userSpaceOnUse" x="11" y="13" width="12" height="10">
<path fill-rule="evenodd" clip-rule="evenodd" d="M11.2999 16.371L16.2345 21.2444C17.6857 22.6776 20.0602 22.6776 21.5114 21.2444C22.6264 20.1432 22.8846 18.5036 22.2859 17.1529C22.4419 17.8227 22.3401 18.435 21.9428 18.8273C21.1511 19.6092 19.4741 19.2325 18.2162 17.9901L13.9384 13.7654L11.2999 16.371Z" fill="white"/>
</mask>
<g mask="url(#mask1_110_87)">
<path fill-rule="evenodd" clip-rule="evenodd" d="M11.2999 16.371L16.2345 21.2444C17.6857 22.6776 20.0602 22.6776 21.5114 21.2444C22.6264 20.1432 22.8846 18.5036 22.2859 17.1529C22.4419 17.8227 22.3401 18.435 21.9428 18.8273C21.1511 19.6092 19.4741 19.2325 18.2162 17.9901L13.9384 13.7654L11.2999 16.371Z" fill="#008CFF"/>
</g>
<mask id="mask2_110_87" style="mask-type:alpha" maskUnits="userSpaceOnUse" x="11" y="0" width="12" height="10">
<path fill-rule="evenodd" clip-rule="evenodd" d="M16.2345 1.07494L11.2999 5.94834L13.9384 8.55393C15.3895 9.98706 17.764 9.98706 19.2152 8.55386L21.5112 6.28627C22.9625 4.85299 22.9624 2.508 21.5113 1.07487C20.7857 0.358337 19.8293 0 18.8729 0C17.9165 0 16.9602 0.358337 16.2345 1.07494Z" fill="white"/>
</mask>
<g mask="url(#mask2_110_87)">
<path fill-rule="evenodd" clip-rule="evenodd" d="M16.2345 1.07494L11.2999 5.94834L13.9384 8.55393C15.3895 9.98706 17.764 9.98706 19.2152 8.55386L21.5112 6.28627C22.9625 4.85299 22.9624 2.508 21.5113 1.07487C20.7857 0.358337 19.8293 0 18.8729 0C17.9165 0 16.9602 0.358337 16.2345 1.07494Z" fill="#0565B3"/>
</g>
<mask id="mask3_110_87" style="mask-type:alpha" maskUnits="userSpaceOnUse" x="11" y="0" width="12" height="9">
<path fill-rule="evenodd" clip-rule="evenodd" d="M16.2345 1.07487L11.2999 5.94833L13.9384 8.55393L18.2162 4.32929C19.4741 3.08678 21.1511 2.71018 21.9428 3.49205C22.3401 3.88428 22.4419 4.49665 22.2859 5.16638C22.8846 3.81572 22.6264 2.17606 21.5114 1.07487C20.7858 0.358337 19.8294 0 18.8729 0C17.9165 0 16.9602 0.358337 16.2345 1.07487Z" fill="white"/>
</mask>
<g mask="url(#mask3_110_87)">
<path fill-rule="evenodd" clip-rule="evenodd" d="M11.2999 5.94833L13.9384 8.55393L18.2162 4.32929C19.4741 3.08678 21.1511 2.71018 21.9428 3.49205C22.3401 3.88428 22.4419 4.49665 22.2859 5.16638C22.8846 3.81572 22.6264 2.17606 21.5114 1.07487C20.7858 0.358337 19.8294 0 18.8729 0C17.9165 0 16.9602 0.358337 16.2345 1.07487L11.2999 5.94833Z" fill="#008CFF"/>
</g>
<mask id="mask4_110_87" style="mask-type:alpha" maskUnits="userSpaceOnUse" x="0" y="12" width="12" height="11">
<path fill-rule="evenodd" clip-rule="evenodd" d="M3.38455 13.7654L1.08841 16.033C-0.362792 17.4661 -0.362792 19.8112 1.08834 21.2444C2.53954 22.6775 4.91398 22.6776 6.36519 21.2443L11.2998 16.371L8.66133 13.7653C7.93572 13.0488 6.9794 12.6904 6.02301 12.6904C5.06655 12.6904 4.11015 13.0488 3.38455 13.7654Z" fill="white"/>
</mask>
<g mask="url(#mask4_110_87)">
<path fill-rule="evenodd" clip-rule="evenodd" d="M3.38455 13.7654L1.08841 16.033C-0.362792 17.4661 -0.362792 19.8112 1.08834 21.2444C2.53954 22.6775 4.91398 22.6776 6.36519 21.2443L11.2998 16.371L8.66133 13.7653C7.93572 13.0488 6.9794 12.6904 6.02301 12.6904C5.06655 12.6904 4.11015 13.0488 3.38455 13.7654Z" fill="#0565B3"/>
</g>
<mask id="mask5_110_87" style="mask-type:alpha" maskUnits="userSpaceOnUse" x="0" y="13" width="12" height="10">
<path fill-rule="evenodd" clip-rule="evenodd" d="M4.3835 17.9901C3.12553 19.2325 1.44859 19.6092 0.656892 18.8273C0.259599 18.435 0.157675 17.8227 0.313703 17.1529C-0.284982 18.5036 -0.026741 20.1432 1.08835 21.2444C2.53948 22.6776 4.914 22.6776 6.3652 21.2444L11.2997 16.371L8.66134 13.7654L4.3835 17.9901Z" fill="white"/>
</mask>
<g mask="url(#mask5_110_87)">
<path fill-rule="evenodd" clip-rule="evenodd" d="M4.3835 17.9901C3.12553 19.2325 1.44859 19.6092 0.656892 18.8273C0.259599 18.435 0.157675 17.8227 0.313703 17.1529C-0.284982 18.5036 -0.026741 20.1432 1.08835 21.2444C2.53948 22.6776 4.914 22.6776 6.3652 21.2444L11.2997 16.371L8.66134 13.7654L4.3835 17.9901Z" fill="#008CFF"/>
</g>
<mask id="mask6_110_87" style="mask-type:alpha" maskUnits="userSpaceOnUse" x="0" y="0" width="12" height="10">
<path fill-rule="evenodd" clip-rule="evenodd" d="M1.08834 1.07487C-0.362792 2.508 -0.362792 4.85299 1.08841 6.28627L3.38455 8.55386C4.83575 9.98706 7.2102 9.98706 8.66133 8.55393L11.2998 5.94834L6.36519 1.07494C5.63959 0.358337 4.68312 0 3.7268 0C2.77033 0 1.81394 0.358337 1.08834 1.07487Z" fill="white"/>
</mask>
<g mask="url(#mask6_110_87)">
<path fill-rule="evenodd" clip-rule="evenodd" d="M1.08834 1.07487C-0.362792 2.508 -0.362792 4.85299 1.08841 6.28627L3.38455 8.55386C4.83575 9.98706 7.2102 9.98706 8.66133 8.55393L11.2998 5.94834L6.36519 1.07494C5.63959 0.358337 4.68312 0 3.7268 0C2.77033 0 1.81394 0.358337 1.08834 1.07487Z" fill="#0565B3"/>
</g>
<mask id="mask7_110_87" style="mask-type:alpha" maskUnits="userSpaceOnUse" x="0" y="0" width="12" height="9">
<path fill-rule="evenodd" clip-rule="evenodd" d="M1.08835 1.07487C-0.026741 2.17606 -0.284982 3.81572 0.313703 5.16638C0.157675 4.49665 0.259599 3.88428 0.656893 3.49205C1.44859 2.71018 3.12553 3.08678 4.3835 4.32929L8.66134 8.55393L11.2997 5.94833L6.3652 1.07487C5.6396 0.358337 4.68314 0 3.72674 0C2.77035 0 1.81396 0.358337 1.08835 1.07487Z" fill="white"/>
</mask>
<g mask="url(#mask7_110_87)">
<path fill-rule="evenodd" clip-rule="evenodd" d="M0.313703 5.16638C0.157675 4.49665 0.259599 3.88428 0.656893 3.49205C1.44859 2.71018 3.12553 3.08678 4.3835 4.32929L8.66134 8.55393L11.2997 5.94833L6.3652 1.07487C5.6396 0.358337 4.68314 0 3.72674 0C2.77035 0 1.81396 0.358337 1.08835 1.07487C-0.026741 2.17606 -0.284982 3.81572 0.313703 5.16638Z" fill="#008CFF"/>
</g>
</svg>
