<svg width="118" height="24" viewBox="0 0 118 24" fill="none" xmlns="http://www.w3.org/2000/svg">
<path fill-rule="evenodd" clip-rule="evenodd" d="M43.1398 4.5564H38.9345V12.1394C38.9345 14.1116 37.8691 15.0004 36.3271 15.0004C34.9814 15.0004 33.888 14.1949 33.888 12.4727V4.5564H29.6826V13.0838C29.6826 16.8337 32.0937 18.8336 34.9253 18.8336C36.7757 18.8336 38.1775 18.1669 38.9345 17.1392V18.4447H43.1398V4.5564ZM54.7186 18.4447H59.5408L54.5224 11.3895L59.3726 4.5564H54.5504L52.1113 8.00071L49.6722 4.5564H44.85L49.7002 11.3895L44.6818 18.4447H49.504L52.1113 14.7782L54.7186 18.4447Z" fill="#008CFF"/>
<path fill-rule="evenodd" clip-rule="evenodd" d="M71.1214 4.16748C74.7941 4.16748 77.822 7.36179 77.822 11.5005C77.822 15.6392 74.7941 18.8335 71.1214 18.8335C69.243 18.8335 67.8692 18.1947 66.944 17.1392V24H62.7386V4.55635H66.944V5.86186C67.8692 4.80634 69.243 4.16748 71.1214 4.16748ZM70.2802 14.8893C72.2147 14.8893 73.6165 13.5838 73.6165 11.5006C73.6165 9.41733 72.2147 8.11183 70.2802 8.11183C68.3458 8.11183 66.944 9.41733 66.944 11.5006C66.944 13.5838 68.3458 14.8893 70.2802 14.8893ZM84.4102 7.02852C84.9709 5.16749 86.8494 4.27864 88.6156 4.27864V9.00066C86.8774 8.7229 84.4102 9.41731 84.4102 12.1672V18.4447H80.2048V4.5564H84.4102V7.02852ZM97.3083 18.8336C93.187 18.8336 89.8787 15.6392 89.8787 11.5005C89.8787 7.3618 93.187 4.16748 97.3083 4.16748C101.43 4.16748 104.738 7.3618 104.738 11.5005C104.738 15.6392 101.43 18.8336 97.3083 18.8336ZM97.3084 14.7782C99.1307 14.7782 100.533 13.4727 100.533 11.5005C100.533 9.52839 99.1307 8.22288 97.3084 8.22288C95.4861 8.22288 94.0843 9.52839 94.0843 11.5005C94.0843 13.4727 95.4861 14.7782 97.3084 14.7782ZM111.103 8.61175C111.103 10.195 118 9.1395 118 14.2782C118 17.4725 115.196 18.8336 112.168 18.8336C109.365 18.8336 107.234 17.778 106.14 15.5281L109.785 13.4727C110.15 14.5282 110.935 15.1115 112.168 15.1115C113.177 15.1115 113.682 14.8059 113.682 14.2504C113.682 12.7227 106.785 13.5282 106.785 8.72285C106.785 5.6952 109.365 4.16748 112.28 4.16748C114.551 4.16748 116.57 5.16744 117.747 7.13959L114.159 9.05617C113.766 8.33398 113.205 7.834 112.28 7.834C111.551 7.834 111.103 8.11177 111.103 8.61175Z" fill="#FAFCFD"/>
<mask id="mask0_7_1321" style="mask-type:alpha" maskUnits="userSpaceOnUse" x="11" y="12" width="12" height="11">
<path fill-rule="evenodd" clip-rule="evenodd" d="M13.9384 13.7653L11.2999 16.371L16.2345 21.2443C17.6857 22.6776 20.0602 22.6775 21.5113 21.2444V21.2444C22.9624 19.8112 22.9625 17.4661 21.5112 16.033V16.033L19.2152 13.7654C18.4896 13.0488 17.5331 12.6904 16.5767 12.6904V12.6904C15.6203 12.6904 14.6639 13.0488 13.9384 13.7653" fill="white"/>
</mask>
<g mask="url(#mask0_7_1321)">
<path fill-rule="evenodd" clip-rule="evenodd" d="M13.9384 13.7653L11.2999 16.371L16.2345 21.2443C17.6857 22.6776 20.0602 22.6775 21.5113 21.2444V21.2444C22.9624 19.8112 22.9625 17.4661 21.5112 16.033V16.033L19.2152 13.7654C18.4896 13.0488 17.5331 12.6904 16.5767 12.6904V12.6904C15.6203 12.6904 14.6639 13.0488 13.9384 13.7653" fill="#0565B3"/>
</g>
<mask id="mask1_7_1321" style="mask-type:alpha" maskUnits="userSpaceOnUse" x="11" y="13" width="12" height="10">
<path fill-rule="evenodd" clip-rule="evenodd" d="M11.2999 16.371L16.2345 21.2444C17.6857 22.6776 20.0602 22.6776 21.5114 21.2444V21.2444C22.6264 20.1432 22.8846 18.5036 22.2859 17.1529V17.1529C22.4419 17.8227 22.3401 18.435 21.9428 18.8273V18.8273C21.1511 19.6092 19.4741 19.2325 18.2162 17.9901V17.9901L13.9384 13.7654L11.2999 16.371Z" fill="white"/>
</mask>
<g mask="url(#mask1_7_1321)">
<path fill-rule="evenodd" clip-rule="evenodd" d="M11.2999 16.371L16.2345 21.2444C17.6857 22.6776 20.0602 22.6776 21.5114 21.2444V21.2444C22.6264 20.1432 22.8846 18.5036 22.2859 17.1529V17.1529C22.4419 17.8227 22.3401 18.435 21.9428 18.8273V18.8273C21.1511 19.6092 19.4741 19.2325 18.2162 17.9901V17.9901L13.9384 13.7654L11.2999 16.371Z" fill="#008CFF"/>
</g>
<mask id="mask2_7_1321" style="mask-type:alpha" maskUnits="userSpaceOnUse" x="11" y="0" width="12" height="10">
<path fill-rule="evenodd" clip-rule="evenodd" d="M16.2345 1.07494L11.2999 5.94833L13.9384 8.55393C15.3895 9.98706 17.764 9.98706 19.2152 8.55386V8.55386L21.5112 6.28627C22.9625 4.85299 22.9624 2.508 21.5113 1.07487V1.07487C20.7857 0.358337 19.8293 0 18.8729 0V0C17.9165 0 16.9602 0.358337 16.2345 1.07494" fill="white"/>
</mask>
<g mask="url(#mask2_7_1321)">
<path fill-rule="evenodd" clip-rule="evenodd" d="M16.2345 1.07494L11.2999 5.94833L13.9384 8.55393C15.3895 9.98706 17.764 9.98706 19.2152 8.55386V8.55386L21.5112 6.28627C22.9625 4.85299 22.9624 2.508 21.5113 1.07487V1.07487C20.7857 0.358337 19.8293 0 18.8729 0V0C17.9165 0 16.9602 0.358337 16.2345 1.07494" fill="#0565B3"/>
</g>
<mask id="mask3_7_1321" style="mask-type:alpha" maskUnits="userSpaceOnUse" x="11" y="0" width="12" height="9">
<path fill-rule="evenodd" clip-rule="evenodd" d="M16.2345 1.07487L11.2999 5.94833L13.9384 8.55393L18.2162 4.32929C19.4741 3.08678 21.1511 2.71018 21.9428 3.49205V3.49205C22.3401 3.88428 22.4419 4.49665 22.2859 5.16638V5.16638C22.8846 3.81572 22.6264 2.17606 21.5114 1.07487V1.07487C20.7858 0.358337 19.8294 0 18.8729 0V0C17.9165 0 16.9602 0.358337 16.2345 1.07487" fill="white"/>
</mask>
<g mask="url(#mask3_7_1321)">
<path fill-rule="evenodd" clip-rule="evenodd" d="M11.2999 5.94833L13.9384 8.55393L18.2162 4.32929C19.4741 3.08678 21.1511 2.71018 21.9428 3.49205C22.3401 3.88428 22.4419 4.49665 22.2859 5.16638C22.8846 3.81572 22.6264 2.17606 21.5114 1.07487C20.7858 0.358337 19.8294 0 18.8729 0C17.9165 0 16.9602 0.358337 16.2345 1.07487L11.2999 5.94833Z" fill="#008CFF"/>
</g>
<mask id="mask4_7_1321" style="mask-type:alpha" maskUnits="userSpaceOnUse" x="0" y="12" width="12" height="11">
<path fill-rule="evenodd" clip-rule="evenodd" d="M3.38455 13.7654L1.08841 16.033C-0.362792 17.4661 -0.362792 19.8112 1.08834 21.2444V21.2444C2.53954 22.6775 4.91398 22.6776 6.36519 21.2443V21.2443L11.2998 16.371L8.66133 13.7653C7.93572 13.0488 6.9794 12.6904 6.02301 12.6904V12.6904C5.06654 12.6904 4.11015 13.0488 3.38455 13.7654" fill="white"/>
</mask>
<g mask="url(#mask4_7_1321)">
<path fill-rule="evenodd" clip-rule="evenodd" d="M3.38455 13.7654L1.08841 16.033C-0.362792 17.4661 -0.362792 19.8112 1.08834 21.2444V21.2444C2.53954 22.6775 4.91398 22.6776 6.36519 21.2443V21.2443L11.2998 16.371L8.66133 13.7653C7.93572 13.0488 6.9794 12.6904 6.02301 12.6904V12.6904C5.06654 12.6904 4.11015 13.0488 3.38455 13.7654" fill="#0565B3"/>
</g>
<mask id="mask5_7_1321" style="mask-type:alpha" maskUnits="userSpaceOnUse" x="0" y="13" width="12" height="10">
<path fill-rule="evenodd" clip-rule="evenodd" d="M4.3835 17.9901C3.12553 19.2325 1.44859 19.6092 0.656892 18.8273V18.8273C0.259599 18.435 0.157675 17.8227 0.313703 17.1529V17.1529C-0.284982 18.5036 -0.026741 20.1432 1.08835 21.2444V21.2444C2.53948 22.6776 4.914 22.6776 6.3652 21.2444V21.2444L11.2997 16.371L8.66134 13.7654L4.3835 17.9901Z" fill="white"/>
</mask>
<g mask="url(#mask5_7_1321)">
<path fill-rule="evenodd" clip-rule="evenodd" d="M4.3835 17.9901C3.12553 19.2325 1.44859 19.6092 0.656892 18.8273V18.8273C0.259599 18.435 0.157675 17.8227 0.313703 17.1529V17.1529C-0.284982 18.5036 -0.026741 20.1432 1.08835 21.2444V21.2444C2.53948 22.6776 4.914 22.6776 6.3652 21.2444V21.2444L11.2997 16.371L8.66134 13.7654L4.3835 17.9901Z" fill="#008CFF"/>
</g>
<mask id="mask6_7_1321" style="mask-type:alpha" maskUnits="userSpaceOnUse" x="0" y="0" width="12" height="10">
<path fill-rule="evenodd" clip-rule="evenodd" d="M1.08834 1.07487C-0.362792 2.508 -0.362792 4.85299 1.08841 6.28627V6.28627L3.38455 8.55386C4.83575 9.98706 7.21019 9.98706 8.66133 8.55393V8.55393L11.2998 5.94833L6.36519 1.07494C5.63959 0.358337 4.68312 0 3.7268 0V0C2.77033 0 1.81394 0.358337 1.08834 1.07487" fill="white"/>
</mask>
<g mask="url(#mask6_7_1321)">
<path fill-rule="evenodd" clip-rule="evenodd" d="M1.08834 1.07487C-0.362792 2.508 -0.362792 4.85299 1.08841 6.28627V6.28627L3.38455 8.55386C4.83575 9.98706 7.21019 9.98706 8.66133 8.55393V8.55393L11.2998 5.94833L6.36519 1.07494C5.63959 0.358337 4.68312 0 3.7268 0V0C2.77033 0 1.81394 0.358337 1.08834 1.07487" fill="#0565B3"/>
</g>
<mask id="mask7_7_1321" style="mask-type:alpha" maskUnits="userSpaceOnUse" x="0" y="0" width="12" height="9">
<path fill-rule="evenodd" clip-rule="evenodd" d="M1.08835 1.07487C-0.026741 2.17606 -0.284982 3.81572 0.313703 5.16638V5.16638C0.157675 4.49665 0.259599 3.88428 0.656893 3.49205V3.49205C1.44859 2.71018 3.12553 3.08678 4.3835 4.32929V4.32929L8.66134 8.55393L11.2997 5.94833L6.3652 1.07487C5.6396 0.358337 4.68314 0 3.72674 0V0C2.77035 0 1.81396 0.358337 1.08835 1.07487" fill="white"/>
</mask>
<g mask="url(#mask7_7_1321)">
<path fill-rule="evenodd" clip-rule="evenodd" d="M0.313703 5.16638C0.157675 4.49665 0.259599 3.88428 0.656893 3.49205C1.44859 2.71018 3.12553 3.08678 4.3835 4.32929L8.66134 8.55393L11.2997 5.94833L6.3652 1.07487C5.6396 0.358337 4.68314 0 3.72674 0C2.77035 0 1.81396 0.358337 1.08835 1.07487C-0.026741 2.17606 -0.284982 3.81572 0.313703 5.16638Z" fill="#008CFF"/>
</g>
</svg>
