<svg width="16" height="16" viewBox="0 0 16 16" fill="none" xmlns="http://www.w3.org/2000/svg">
<path d="M15.8713 15.875V15.8744H15.8752V10.0981C15.8752 7.27224 15.2669 5.09546 11.9633 5.09546C10.3752 5.09546 9.30939 5.96696 8.8743 6.79318H8.82836V5.35927H5.69604V15.8744H8.95764V10.6677C8.95764 9.29677 9.21752 7.97115 10.9153 7.97115C12.5881 7.97115 12.613 9.53565 12.613 10.7556V15.875H15.8713Z" fill="#B6BBC6"/>
<path d="M0.384888 5.35986H3.65042V15.875H0.384888V5.35986Z" fill="#B6BBC6"/>
<path d="M2.01633 0.125C0.972227 0.125 0.125 0.972219 0.125 2.01631C0.125 3.06041 0.972227 3.92534 2.01633 3.92534C3.06044 3.92534 3.90766 3.06041 3.90766 2.01631C3.90701 0.972219 3.05978 0.125 2.01633 0.125V0.125Z" fill="#B6BBC6"/>
</svg>
