<svg width="16" height="16" viewBox="0 0 16 16" fill="none" xmlns="http://www.w3.org/2000/svg">
<path d="M11.9376 0.125H4.06254C1.89709 0.125 0.125 1.8963 0.125 4.0625V11.9375C0.125 14.1029 1.89709 15.875 4.06254 15.875H11.9376C14.1031 15.875 15.8752 14.1029 15.8752 11.9375V4.0625C15.8752 1.8963 14.1031 0.125 11.9376 0.125ZM8.00008 11.2811C6.18762 11.2811 4.71873 9.81163 4.71873 8C4.71873 6.18756 6.18762 4.71869 8.00008 4.71869C9.81173 4.71869 11.2814 6.18756 11.2814 8C11.2814 9.81163 9.81173 11.2811 8.00008 11.2811ZM12.2658 4.71869C11.7216 4.71869 11.2814 4.27787 11.2814 3.73431C11.2814 3.19075 11.7216 2.74994 12.2658 2.74994C12.81 2.74994 13.2502 3.19075 13.2502 3.73431C13.2502 4.27787 12.81 4.71869 12.2658 4.71869Z" fill="#B6BBC6"/>
</svg>
