<svg width="324" height="63" viewBox="0 0 324 63" fill="none" xmlns="http://www.w3.org/2000/svg">
<g clip-path="url(#clip0_4_3130)">
<path d="M37.637 25.1419L37.677 19.0189H33.412L33.448 21.7259L23.557 13.9409L16.773 19.2509V56.4249L23.557 62.4759L40.384 46.6149V30.4039L54.6 37.3399L37.637 25.1419ZM22.901 43.4629H18.011V39.1859H22.9L22.901 43.4629ZM22.901 37.8449H18.011C18.011 37.8449 18.892 33.2839 22.9 33.1879L22.901 37.8449ZM29.24 43.4629H24.35V39.1859H29.239L29.24 43.4629ZM24.351 37.8449V33.1869C28.359 33.2869 29.24 37.8439 29.24 37.8439L24.351 37.8449Z" fill="white"/>
<path d="M-7 36.8046L6.922 31.4556V47.2296L13.672 53.2576V21.6206L-7 36.8046Z" fill="#5FC6C0"/>
<path d="M50.98 28.6067C51.25 12.9377 38.226 0.177702 23.031 0.606702C15.8024 0.904657 8.9812 4.0347 4.04136 9.32052C-0.898478 14.6063 -3.56032 21.6235 -3.369 28.8557L3.361 23.9447C4.1938 19.2105 6.6607 14.9184 10.3321 11.8157C14.0035 8.71304 18.6469 6.99636 23.4537 6.9646C28.2604 6.93284 32.9261 8.58801 36.6382 11.6419C40.3503 14.6958 42.8737 18.9549 43.769 23.6777L50.98 28.6067Z" fill="#5FC6C0"/>
<path d="M61.477 38.3565C61.4608 36.2681 61.8691 34.1983 62.677 32.2725C63.4712 30.4363 64.6217 28.7759 66.062 27.3875C67.5172 25.9698 69.2345 24.849 71.118 24.0875C75.1353 22.4878 79.6127 22.4878 83.63 24.0875C85.5135 24.849 87.2308 25.9698 88.686 27.3875C90.1223 28.7702 91.2597 30.4328 92.028 32.2725C93.2466 35.1298 93.5795 38.2872 92.9836 41.3358C92.3878 44.3845 90.8907 47.1842 88.686 49.3725C87.2212 50.7671 85.5057 51.8719 83.63 52.6285C79.6127 54.2282 75.1353 54.2282 71.118 52.6285C69.2423 51.8719 67.5268 50.7671 66.062 49.3725C64.627 47.963 63.4776 46.2897 62.677 44.4445C61.8685 42.5175 61.4603 40.4462 61.477 38.3565ZM77.377 47.1405C78.5369 47.1535 79.6877 46.9349 80.762 46.4975C81.7671 46.0572 82.6713 45.4157 83.419 44.6125C84.1666 43.8049 84.7488 42.8588 85.133 41.8275C85.9899 39.5932 85.9899 37.1208 85.133 34.8865C84.7625 33.8486 84.1786 32.8999 83.419 32.1015C82.6771 31.3025 81.7705 30.674 80.762 30.2595C79.6908 29.8071 78.5398 29.574 77.377 29.574C76.2142 29.574 75.0632 29.8071 73.992 30.2595C72.9835 30.674 72.0769 31.3025 71.335 32.1015C70.5716 32.905 69.9745 33.8515 69.578 34.8865C68.7782 37.131 68.7782 39.5829 69.578 41.8275C69.9883 42.8555 70.5838 43.7995 71.335 44.6125C72.0827 45.4157 72.9869 46.0572 73.992 46.4975C75.0663 46.9349 76.2171 47.1535 77.377 47.1405Z" fill="#55C9C0"/>
<path d="M94.993 39.8135C94.9659 38.4505 95.2594 37.1002 95.85 35.8715C96.3977 34.7297 97.2048 33.7318 98.207 32.9575C99.2475 32.1656 100.424 31.5701 101.678 31.2005C103.054 30.7916 104.484 30.5894 105.92 30.6005C107.342 30.5913 108.757 30.7935 110.12 31.2005C111.379 31.5578 112.558 32.1544 113.591 32.9575C114.593 33.7315 115.401 34.7295 115.948 35.8715C116.539 37.1002 116.832 38.4505 116.805 39.8135V53.0535H109.905V41.3995C110.007 40.1946 109.638 38.997 108.877 38.0575C108.492 37.6719 108.029 37.3731 107.519 37.1809C107.01 36.9888 106.465 36.9079 105.921 36.9435C103.236 36.9435 101.894 38.4289 101.893 41.3995V53.0535H94.993V39.8135Z" fill="#55C9C0"/>
<path d="M129.663 53.8329C127.558 53.901 125.481 53.3442 123.692 52.2329C122.127 51.1788 120.889 49.7076 120.118 47.9859C119.356 46.1914 118.969 44.2596 118.983 42.3099C118.966 40.3735 119.353 38.4548 120.118 36.6759C120.88 34.9372 122.119 33.45 123.692 32.3869C125.499 31.2425 127.61 30.6708 129.747 30.7469C131.135 30.6807 132.522 30.9128 133.813 31.4278C135.104 31.9427 136.269 32.7284 137.231 33.7319C139.081 35.6939 140.006 38.5532 140.006 42.3099V44.1179H125.29V44.4539C125.275 45.5649 125.698 46.6371 126.467 47.4389C126.868 47.8407 127.348 48.1561 127.875 48.3658C128.403 48.5754 128.968 48.6748 129.536 48.6579C130.392 48.6835 131.238 48.4646 131.975 48.0269C132.627 47.6046 133.128 46.9862 133.405 46.2609H139.838C139.313 48.4195 138.085 50.3423 136.348 51.7269C134.434 53.1878 132.069 53.9328 129.663 53.8329ZM133.742 39.9149C133.779 39.3041 133.695 38.6919 133.493 38.1143C133.29 37.5366 132.975 37.0051 132.565 36.5509C131.732 35.8314 130.664 35.4426 129.564 35.4581C128.463 35.4735 127.406 35.8923 126.594 36.6349C125.818 37.5476 125.413 38.718 125.459 39.9149H133.742Z" fill="#55C9C0"/>
<path d="M143.857 27.3318C143.835 26.7001 143.953 26.0714 144.2 25.4898C144.395 25.0449 144.706 24.6603 145.1 24.3758C145.468 24.0917 145.891 23.8874 146.342 23.7758C146.819 23.6626 147.308 23.6052 147.799 23.6048C148.621 23.5707 149.44 23.7168 150.199 24.0328C150.607 24.1867 150.995 24.3881 151.356 24.6328C151.694 25.0284 152.009 25.4435 152.299 25.8758C152.813 26.5611 153.413 27.4038 154.099 28.4038C154.813 29.4038 155.57 30.5178 156.37 31.7458C157.199 32.9458 157.999 34.1311 158.77 35.3018C159.541 36.4445 160.255 37.5158 160.912 38.5158C161.569 39.4871 162.083 40.2728 162.454 40.8728V26.7728C162.403 26.3119 162.47 25.8455 162.65 25.418C162.83 24.9906 163.117 24.6163 163.482 24.3308C164.284 23.8121 165.228 23.5576 166.182 23.6028C166.921 23.5902 167.658 23.6914 168.367 23.9028C168.995 24.1028 169.381 24.2315 169.524 24.2888V52.9978H162.797C162.54 52.5691 162.14 51.9264 161.597 51.0698C161.054 50.2131 160.426 49.2418 159.712 48.1558C158.998 47.0705 158.227 45.9135 157.398 44.6848C156.598 43.4275 155.798 42.1991 154.998 40.9998C154.227 39.7998 153.484 38.6715 152.77 37.6148C152.056 36.5581 151.442 35.6581 150.928 34.9148V52.9978H143.858L143.857 27.3318Z" fill="white"/>
<path d="M183.055 53.7758C180.95 53.8438 178.873 53.2871 177.084 52.1758C175.519 51.1217 174.281 49.6504 173.51 47.9288C172.748 46.1343 172.361 44.2025 172.375 42.2528C172.358 40.3164 172.745 38.3977 173.51 36.6188C174.272 34.8801 175.511 33.3929 177.084 32.3298C178.891 31.1853 181.002 30.6137 183.139 30.6898C184.527 30.6235 185.914 30.8557 187.205 31.3706C188.496 31.8855 189.661 32.6712 190.623 33.6748C192.473 35.6368 193.398 38.4961 193.398 42.2528V44.0628H178.682V44.3988C178.667 45.5097 179.09 46.582 179.859 47.3838C180.26 47.7856 180.74 48.101 181.267 48.3107C181.795 48.5203 182.36 48.6197 182.928 48.6028C183.784 48.6283 184.63 48.4095 185.367 47.9718C186.019 47.5495 186.52 46.9311 186.797 46.2058H193.23C192.705 48.3644 191.477 50.2872 189.74 51.6718C187.826 53.1319 185.461 53.8763 183.055 53.7758ZM187.134 39.8578C187.171 39.2469 187.087 38.6348 186.885 38.0571C186.682 37.4795 186.367 36.948 185.957 36.4938C185.124 35.7743 184.056 35.3855 182.956 35.4009C181.855 35.4164 180.798 35.8351 179.986 36.5778C179.21 37.4905 178.805 38.6609 178.851 39.8578H187.134Z" fill="white"/>
<path d="M202.752 34.1885C202.798 33.7445 202.732 33.2961 202.56 32.8843C202.387 32.4725 202.114 32.1105 201.766 31.8315C200.986 31.34 200.073 31.1005 199.152 31.1455C198.441 31.1366 197.732 31.2378 197.052 31.4455C196.423 31.6168 196.023 31.7311 195.852 31.7885V52.9985H202.752V34.1885Z" fill="white"/>
<path d="M208.488 55.1398C208.708 55.2577 208.938 55.358 209.174 55.4398C209.636 55.6103 210.109 55.7532 210.588 55.8678C211.399 56.0528 212.219 56.1956 213.045 56.2958C213.894 56.4428 214.754 56.5144 215.616 56.5098C216.468 56.5172 217.317 56.4164 218.144 56.2098C218.89 56.0381 219.581 55.685 220.158 55.1818C220.745 54.7035 221.202 54.0842 221.486 53.3818C221.827 52.5237 221.987 51.6046 221.957 50.6818V50.2108C221.727 50.4262 221.484 50.6266 221.229 50.8108C220.832 51.1179 220.401 51.3768 219.943 51.5818C219.352 51.8681 218.735 52.0978 218.101 52.2678C217.318 52.4766 216.511 52.5775 215.701 52.5678C214.244 52.5819 212.796 52.3503 211.416 51.8828C210.169 51.4212 209.031 50.7061 208.074 49.7828C207.113 48.84 206.367 47.6997 205.889 46.4408C205.356 44.9869 205.094 43.4473 205.118 41.8988C205.096 40.3245 205.402 38.7629 206.018 37.3138C206.589 35.9553 207.435 34.7296 208.503 33.7138C209.59 32.6952 210.873 31.9079 212.274 31.3998C213.835 30.8149 215.492 30.5244 217.159 30.5428C219.032 30.5224 220.887 30.9022 222.601 31.6568C224.244 32.366 225.675 33.4876 226.757 34.9128C227.467 35.8784 227.99 36.9686 228.299 38.1268C228.708 39.6487 228.895 41.2215 228.856 42.7968V49.1838C228.902 51.1399 228.583 53.0873 227.913 54.9258C227.361 56.4383 226.466 57.8023 225.299 58.9108C224.166 59.9785 222.803 60.7704 221.314 61.2248C219.711 61.753 218.032 62.0135 216.344 61.9958C215.182 62.003 214.021 61.9171 212.873 61.7388C211.787 61.6142 210.71 61.4282 209.645 61.1818C208.958 61.0184 208.285 60.8035 207.631 60.5388C207.117 60.3388 207.174 60.1818 207.003 60.0678L208.488 55.1398ZM212.188 41.8998C212.135 42.5703 212.231 43.2441 212.468 43.8735C212.705 44.5029 213.077 45.0725 213.559 45.5418C214.54 46.3653 215.792 46.7932 217.072 46.7418C217.71 46.7632 218.346 46.6567 218.942 46.4286C219.538 46.2006 220.082 45.8555 220.543 45.4138C221.015 44.9623 221.385 44.4153 221.629 43.8093C221.873 43.2034 221.985 42.5524 221.957 41.8998C221.982 41.2413 221.869 40.5849 221.625 39.9725C221.382 39.3602 221.013 38.8054 220.543 38.3438C220.095 37.8791 219.555 37.5132 218.957 37.2697C218.359 37.0262 217.717 36.9104 217.072 36.9298C216.396 36.9225 215.725 37.0538 215.101 37.3158C214.518 37.5613 213.992 37.9261 213.558 38.3868C213.106 38.8513 212.752 39.4015 212.517 40.005C212.281 40.6086 212.169 41.2532 212.187 41.9008L212.188 41.8998Z" fill="white"/>
<path d="M231.333 24.4615C231.287 24.0176 231.353 23.5692 231.525 23.1574C231.697 22.7457 231.97 22.3836 232.318 22.1045C233.098 21.6133 234.011 21.3742 234.932 21.4195C235.629 21.4085 236.324 21.5098 236.989 21.7195C237.617 21.8908 238.017 22.0052 238.189 22.0625V32.4315C238.855 31.8712 239.607 31.4227 240.417 31.1035C241.58 30.6651 242.817 30.4612 244.059 30.5035C245.267 30.4913 246.469 30.6795 247.615 31.0605C248.675 31.3888 249.644 31.9611 250.443 32.7315C251.304 33.5225 251.965 34.5064 252.371 35.6025C252.856 36.9037 253.089 38.2853 253.057 39.6735V52.9985H246.157V41.0865C246.261 39.9408 245.907 38.8006 245.172 37.9155C244.787 37.5628 244.333 37.2934 243.839 37.1239C243.345 36.9544 242.822 36.8886 242.301 36.9305C241.747 36.898 241.193 36.9845 240.676 37.1841C240.158 37.3836 239.69 37.6917 239.301 38.0875C238.505 39.1104 238.122 40.3956 238.23 41.6875V52.9985H231.33L231.333 24.4615Z" fill="white"/>
<path d="M255.55 24.4615C255.504 24.0176 255.57 23.5692 255.742 23.1574C255.914 22.7456 256.187 22.3836 256.535 22.1045C257.315 21.6133 258.228 21.3742 259.149 21.4195C259.846 21.4085 260.541 21.5098 261.206 21.7195C261.834 21.8908 262.234 22.0052 262.406 22.0625V32.9025C263.092 32.2709 263.873 31.7503 264.72 31.3595C265.965 30.7763 267.331 30.4973 268.705 30.5455C270.121 30.5371 271.523 30.8292 272.818 31.4025C274.082 31.9306 275.221 32.719 276.16 33.7165C277.159 34.7614 277.933 36.0012 278.431 37.3585C279.021 38.8587 279.312 40.4597 279.288 42.0715C279.307 43.6869 279.001 45.2897 278.388 46.7845C277.826 48.1596 276.98 49.4008 275.906 50.4275C274.813 51.4498 273.533 52.2502 272.135 52.7845C270.641 53.3387 269.058 53.6146 267.465 53.5985C265.537 53.6244 263.624 53.2449 261.852 52.4845C260.209 51.7753 258.778 50.6537 257.696 49.2285C256.961 48.2092 256.423 47.061 256.111 45.8435C255.714 44.2901 255.527 42.6906 255.554 41.0875L255.55 24.4615ZM267.29 47.2615C267.942 47.2834 268.591 47.169 269.196 46.9255C269.801 46.682 270.348 46.3148 270.803 45.8475C271.28 45.3549 271.651 44.7703 271.894 44.1293C272.137 43.4883 272.247 42.8044 272.217 42.1195C272.245 41.4284 272.134 40.7388 271.891 40.0912C271.648 39.4435 271.278 38.851 270.803 38.3485C270.113 37.6232 269.214 37.1305 268.232 36.9386C267.249 36.7467 266.231 36.8651 265.319 37.2775C264.719 37.5346 264.179 37.914 263.733 38.3915C263.287 38.8777 262.938 39.4449 262.705 40.0625C262.471 40.7227 262.355 41.419 262.362 42.1195C262.324 42.8081 262.425 43.4973 262.661 44.1455C262.897 44.7937 263.261 45.3873 263.733 45.8905C264.205 46.3442 264.762 46.6988 265.373 46.9334C265.984 47.168 266.636 47.2779 267.29 47.2565V47.2615Z" fill="white"/>
<path d="M280.567 42.0706C280.551 40.4925 280.872 38.9292 281.51 37.4856C282.119 36.1142 282.993 34.8765 284.081 33.8436C285.842 32.2446 288.017 31.172 290.357 30.7478C292.698 30.3235 295.111 30.5646 297.321 31.4436C298.752 31.9811 300.063 32.7968 301.177 33.8436C302.31 34.8933 303.215 36.1659 303.833 37.5816C304.452 38.9974 304.771 40.5256 304.771 42.0706C304.771 43.6155 304.452 45.1437 303.833 46.5595C303.215 47.9752 302.31 49.2478 301.177 50.2976C300.057 51.3477 298.749 52.1763 297.321 52.7396C294.297 53.8823 290.961 53.8823 287.937 52.7396C286.516 52.1624 285.21 51.3354 284.081 50.2976C282.993 49.2646 282.119 48.0269 281.51 46.6556C280.872 45.2119 280.551 43.6486 280.567 42.0706ZM292.653 47.4265C293.329 47.4339 294 47.3026 294.624 47.0406C295.23 46.7708 295.781 46.3933 296.252 45.9265C296.713 45.4349 297.063 44.8506 297.28 44.2126C297.794 42.8305 297.794 41.3096 297.28 39.9276C297.07 39.2983 296.719 38.7256 296.253 38.2536C295.797 37.7687 295.242 37.3886 294.625 37.1396C294.009 36.8504 293.335 36.7041 292.654 36.7116C291.959 36.7011 291.271 36.8474 290.64 37.1396C290.039 37.3965 289.499 37.776 289.053 38.2536C288.583 38.7299 288.219 39.299 287.982 39.9246C287.525 41.3163 287.525 42.8178 287.982 44.2096C288.225 44.8445 288.589 45.4265 289.053 45.9236C289.514 46.383 290.05 46.7598 290.638 47.0375C291.276 47.3034 291.962 47.4357 292.653 47.4265Z" fill="white"/>
<path d="M306.866 39.2855C306.843 38.0094 307.076 36.7417 307.552 35.5575C308.005 34.5018 308.685 33.5591 309.544 32.7963C310.404 32.0335 311.42 31.4696 312.522 31.1445C313.765 30.7331 315.068 30.5303 316.378 30.5445C317.729 30.4895 319.079 30.6781 320.363 31.1015C321.136 31.3563 321.851 31.7645 322.463 32.3015C322.708 32.5689 322.91 32.8725 323.063 33.2015C323.213 33.5533 323.286 33.9331 323.277 34.3155C323.28 34.7253 323.208 35.1321 323.063 35.5155C322.958 35.8664 322.799 36.1987 322.592 36.5005C322.441 36.757 322.269 37.0005 322.078 37.2285C321.907 37.4285 321.778 37.5712 321.692 37.6565C321.124 37.3974 320.536 37.1824 319.935 37.0135C319.196 36.8063 318.431 36.7053 317.664 36.7135C316.653 36.6881 315.666 37.0223 314.879 37.6565C314.474 38.0635 314.164 38.555 313.972 39.0958C313.779 39.6365 313.709 40.2132 313.765 40.7845V52.9965H306.865L306.866 39.2855Z" fill="white"/>
<path d="M195.915 24.6609V29.4279H202.589C202.589 29.4279 204.243 24.1229 195.915 24.6609Z" fill="white"/>
</g>
<defs>
<clipPath id="clip0_4_3130">
<rect width="330.277" height="61.88" fill="white" transform="translate(-7 0.595703)"/>
</clipPath>
</defs>
</svg>
