<svg width="22" height="22" viewBox="0 0 22 22" fill="none" xmlns="http://www.w3.org/2000/svg">
<path opacity="0.8" d="M11.189 20.9985L12.1236 20.1049C12.3573 19.8698 12.356 19.4948 12.1211 19.308L4.83217 12.0658L20.8165 12.0145C21.1446 12.0134 21.3781 11.7314 21.3772 11.4502L21.3729 10.1377C21.3719 9.80955 21.1368 9.57593 20.8086 9.57698L4.82435 9.62828L12.0665 2.2925C12.3002 2.10425 12.299 1.72925 12.0639 1.49563L11.1236 0.608015C10.9353 0.374243 10.5603 0.375447 10.3267 0.610573L0.5613 10.4388C0.327679 10.674 0.328732 11.0021 0.563858 11.2357L10.3921 21.0011C10.6272 21.2347 11.0022 21.2335 11.189 20.9985Z" fill="white"/>
</svg>
